<svg id="Layer_1_copy" data-name="Layer 1 copy" xmlns="http://www.w3.org/2000/svg" xmlns:xlink="http://www.w3.org/1999/xlink" viewBox="0 0 179 125">
  <defs>
    <style>
      .cls-1{fill:url(#radial-gradient);}.cls-2{fill:#ed1c24;}.cls-3{fill:none;}
    </style>
    <radialGradient id="radial-gradient" cx="289.73" cy="345.77" r="52.34" gradientUnits="userSpaceOnUse">
      <stop offset="0.09" stop-color="#fff200"/>
      <stop offset="0.2" stop-color="#fedf06"/>
      <stop offset="0.37" stop-color="#fdb913"/>
      <stop offset="0.46" stop-color="#faa717"/>
      <stop offset="0.6" stop-color="#f58220"/>
      <stop offset="0.94" stop-color="#ee2824"/>
      <stop offset="1" stop-color="#ed1c24"/>
    </radialGradient>
  </defs>
  <title>ilume Master</title>
  <path class="cls-1" d="M237.69,345.89a52.29,52.29,0,0,0,104.58,0H237.69Z" transform="translate(-206.5 -329)"/>
  <path class="cls-2" d="M369.16,431.43a2.27,2.27,0,1,1-2.35,2.26,2.29,2.29,0,0,1,2.33-2.26h0Zm0,0.46a1.81,1.81,0,0,0,0,3.62,1.73,1.73,0,0,0,1.73-1.81,1.75,1.75,0,0,0-1.74-1.81h0Zm-0.34,3h-0.52v-2.25a4.35,4.35,0,0,1,.87-0.08,1.28,1.28,0,0,1,.79.18,0.61,0.61,0,0,1,.22.48,0.58,0.58,0,0,1-.47.54v0a0.65,0.65,0,0,1,.41.55,1.48,1.48,0,0,0,.17.55h-0.57a1.77,1.77,0,0,1-.18-0.54A0.4,0.4,0,0,0,369,434h-0.25v0.9Zm0-1.27H369c0.29,0,.52-0.1.52-0.33s-0.15-.34-0.48-0.34a1.2,1.2,0,0,0-.29,0v0.65Z" transform="translate(-206.5 -329)"/>
  <path class="cls-2" d="M228,395.78h-3.52v-6H228m0,16.94v32.68h-3.52V406.75H228Z" transform="translate(-206.5 -329)"/>
  <path class="cls-2" d="M241.66,389.81v49.62h-3.52V389.81h3.52Z" transform="translate(-206.5 -329)"/>
  <path class="cls-2" d="M272.09,439.43V434H272a15.31,15.31,0,0,1-4.67,4.65,12,12,0,0,1-6.09,1.39,11.87,11.87,0,0,1-8.7-3.41Q249,433.25,249,427V406.75h3.48v20.18a9.91,9.91,0,0,0,2.48,7.14,8.57,8.57,0,0,0,6.47,2.59,10.39,10.39,0,0,0,5.81-1.56,17.36,17.36,0,0,0,4.81-5.4v-23h3.48v32.68h-3.48Z" transform="translate(-206.5 -329)"/>
  <path class="cls-2" d="M286.34,406.75v5.76h0.14q4-6.39,10.41-6.39,7.5,0,10.55,7.85,4.61-7.85,11.35-7.85a10.29,10.29,0,0,1,8.19,3.62q3.12,3.62,3.12,9.63v20.07h-3.48V420.89q0-5.29-2.23-8.33a7.33,7.33,0,0,0-6.27-3,8.1,8.1,0,0,0-5.25,1.81,21.85,21.85,0,0,0-4.61,5.83v22.27h-3.52V420.82q0-5.43-2.33-8.37a7.55,7.55,0,0,0-6.24-2.93q-5.68,0-9.84,7v22.91h-3.48V406.75h3.48Z" transform="translate(-206.5 -329)"/>
  <path class="cls-2" d="M365.46,421.88H339.71a14,14,0,0,0-.11,1.71,12.44,12.44,0,0,0,3.91,9.27,12.79,12.79,0,0,0,9.23,3.8q6.22,0,12.15-4.87v3.94a20,20,0,0,1-12.57,4.34,15.35,15.35,0,0,1-11.69-4.91A17.45,17.45,0,0,1,336,422.7a17,17,0,0,1,4.26-11.88,14.56,14.56,0,0,1,21-.46Q365.46,414.6,365.46,421.88Zm-25.29-2.81h21.17q-1.85-9.56-10.34-9.56a10.34,10.34,0,0,0-6.94,2.5A12.25,12.25,0,0,0,340.17,419.08Z" transform="translate(-206.5 -329)"/>
  <rect class="cls-3" width="179" height="179"/>
</svg>
